REM GENRE Classical
REM DATE 2019
REM COMMENT uploaded by ANothing
CATALOG 0028948367672
PERFORMER "Ludwig van Beethoven"
TITLE "BTHVN 2020: CD 027 King Stephen / The Consecration of the House / Tarpeja / Leonore Prohaska"
FILE "BTHVN 2020 - CD 027.flac" WAVE
  TRACK 01 AUDIO
    TITLE "Music to August von Kotzebue's Festive Prologue “König Stephan oder Ungarns erster Wohltäter", op. 117: Overture. Andante con moto - Presto"
    INDEX 01 00:00:00
  TRACK 02 AUDIO
    TITLE "Music to August von Kotzebue's Festive Prologue “König Stephan oder Ungarns erster Wohltäter', op. 117: No. 1 Chorus: “Ruhend von seinen Taten”. Andante maestoso e con moto / “Seid mir gegrьЯt an dieses Thrones Stufen” (Ling Stephen)"
    INDEX 01 06:34:72
  TRACK 03 AUDIO
    TITLE "Music to August von Kotzebue's Festive Prologue “König Stephan oder Ungarns erster Wohltäter', op. 117: No. 2 Chorus: “Auf dunkelm Irrweg in finstern Hainen”. Allegro con brio / “Fьrst! Mich sandten die Edlen im Heere” (A Warrior, King Stephen)"
    INDEX 01 10:50:38
  TRACK 04 AUDIO
    TITLE "Music to August von Kotzebue's Festive Prologue “König Stephan oder Ungarns erster Wohltäter', op. 117: No. 3 Siegesmarsch / Feurig und stolz / “Ihr tapfern Krieger, Ungarns Stolz und Zierde” (King Stephen, Gyula, Bavarian Ambassador)"
    INDEX 01 12:38:72
  TRACK 05 AUDIO
    TITLE "Music to August von Kotzebue's Festive Prologue “König Stephan oder Ungarns erster Wohltäter', op. 117: No. 4 Chorus: “Wo die Unschuld Blumen streute”. Andante con moto all’Ongarese"
    INDEX 01 18:46:68
  TRACK 06 AUDIO
    TITLE "Music to August von Kotzebue's Festive Prologue “König Stephan oder Ungarns erster Wohltäter', op. 117: No. 5 Melodrama: “Du hast dein Vaterland, dein Fьrstenhaus verlassen” (King Stephen, Gisela). Vivace"
    INDEX 01 21:12:55
  TRACK 07 AUDIO
    TITLE "Music to August von Kotzebue's Festive Prologue “König Stephan oder Ungarns erster Wohltäter', op. 117: No. 6 Chorus: “Eine neue strahlende Sonne”. Vivace"
    INDEX 01 22:06:41
  TRACK 08 AUDIO
    TITLE "Music to August von Kotzebue's Festive Prologue “König Stephan oder Ungarns erster Wohltäter', op. 117: No. 7 Melodrama: “Ihr edlen Ungarn! Hцrt meine Stimme! ... Empfanget sie aus eures Fьrsten Hдnden” (King Stephen). Maestoso con moto - Andante maestoso - Maestoso con moto"
    INDEX 01 22:40:70
  TRACK 09 AUDIO
    TITLE "Music to August von Kotzebue's Festive Prologue “König Stephan oder Ungarns erster Wohltäter', op. 117: No. 8 Ecclesiastical March, Chorus and Melodrama. March - Moderato / “In der schцnsten deiner Lebensstunden” (An Elder) / Chorus: “Heil unsern Kцnige”. Allegro vivace e con brio / Melodrama: “Ich schmьcke ehrfurchtsvoll mein Haupt” (King Stephen). Grave risoluto e ben marcato - Allegro - Andante moss - Presto"
    INDEX 01 26:37:09
  TRACK 10 AUDIO
    TITLE "Music to August von Kotzebue's Festive Prologue “König Stephan oder Ungarns erster Wohltäter', op. 117: No. 9 Final Chorus: “Heil! Heil unsern Enkeln”. Presto"
    INDEX 01 35:00:20
  TRACK 11 AUDIO
    TITLE "Triumphal March from Christoph Kuffner's Tragedy “Tarpeja”, WoO 2a: Marcia. Lebhaft und stolz"
    INDEX 01 37:05:16
  TRACK 12 AUDIO
    TITLE "Music for Carl Meisl's Occasional Play “Die Weihe des Hauses”: Overture, op. 124. Maestoso e sostenuto - Allegro con brio"
    INDEX 01 39:26:15
  TRACK 13 AUDIO
    TITLE "Music for Carl Meisl's Occasional Play “Die Weihe des Hauses”: [No. 5] Chorus with Soprano Solo, WoO 98: “Wo sich die Pulse jugendlich jagen ... Lasst uns im Tanze”. Allegro ma non troppo e un poco maestoso"
    INDEX 01 50:15:33
  TRACK 14 AUDIO
    TITLE "Music for Carl Meisl's Occasional Play “Die Weihe des Hauses”: No. 6 March and Chorus, op. 114: “Schmьckt die Altдre!”. Assai moderato"
    INDEX 01 56:19:01
  TRACK 15 AUDIO
    TITLE "Music for Carl Meisl's Occasional Play “Die Weihe des Hauses”: No. 7 Offstage Music [Melodrama], op. 113 no. 5: “Es wandelt schon das Volk im Feierkleide” (High Priest). Allegro assai ma non troppo"
    INDEX 01 62:57:42
  TRACK 16 AUDIO
    TITLE "Music to Johann Friedrich Duncker's Play “Leonore Prohaska”, WoO 96: No. 1 Chorus of Warriors: “Wir bauen und sterben”"
    INDEX 01 64:50:32
  TRACK 17 AUDIO
    TITLE "Music to Johann Friedrich Duncker's Play “Leonore Prohaska”, WoO 96: No. 2 Romance: “Es blьht eine Blume im Garten mein” (soprano). In gehender Bewegung (Sopran)"
    INDEX 01 66:10:64
  TRACK 18 AUDIO
    TITLE "Music to Johann Friedrich Duncker's Play “Leonore Prohaska”, WoO 96: No. 3 Melodrama: “Du, dem sie gewunden” (recitant). Feierlich, doch nicht schleppend"
    INDEX 01 68:44:58
  TRACK 19 AUDIO
    TITLE "Music to Johann Friedrich Duncker's Play “Leonore Prohaska”, WoO 96: No. 4 Trauermarsch. In gehender, annehmlicher Bewegung"
    INDEX 01 70:30:32
